<?xml version="1.0" encoding="UTF-8"?>
<svg id="Layer_1" data-name="Layer 1" xmlns="http://www.w3.org/2000/svg" viewBox="0 0 300 300">
  <g>
    <rect width="300" height="300" style="fill: #a4c2d8;"/>
    <g>
      <path d="m148.06,219l45.03-20.07c-22.72-13.36-18.8-51.28-18.8-51.28l-26.44,3.85-26.45-3.85s3.93,37.93-18.8,51.28l45.03,20.07v.19l.22-.11.21.11v-.19Z" style="fill: #f4866f;"/>
      <path d="m175.96,172.39c-2.91-12.82-1.68-24.74-1.68-24.74l-26.44,3.85-26.45-3.85s.84,8.07-.5,18.07c7.98,6.02,28.1,17.49,55.06,6.66Z" style="fill: #e67360;"/>
      <path d="m250.88,300c.63-44.23-6.36-82.4-30.36-91.44-15.43-5.81-39.91-18.68-47.09-28.77l-26.71,20.8-26.72-20.8c-7.19,10.09-20.28,19.12-44.85,28.77-25.01,9.82-31.78,47.7-30.42,91.44h206.15Z" style="fill: #f4866f;"/>
      <path d="m251.61,300c-.87-34.03-4.45-64.48-12.75-83.39l-60.04-28.44-31.26,7.04h-.05l-31.27-7.04-62.04,30.68c-1.88,28.24-2.67,55.47-2.71,81.15h200.12Z" style="fill: #3e326e;"/>
      <path d="m108.01,191.62s-15.75,54.88,39.5,104.28c0,0,43.46-31.13,45.16-101.18l-45.11.49-39.55-3.59Z" style="fill: #e1dac8;"/>
      <path d="m151.67,213.15l-4.38-7.46-2.3,7.46-9.04,71.18c3.46,3.87,7.29,7.73,11.57,11.57,0,0,4.79-3.44,11.23-10.58l-7.08-72.17Z" style="fill: #5d7698;"/>
      <path d="m137.23,201.96s1.71,7.46,7.75,11.19h6.68s5.96-6.31,5.66-11.19c0,0-3.84-6.61-9.82-6.75,0,0-8.56,1.58-10.28,6.75Z" style="fill: #5d7698;"/>
      <path d="m102.39,103.22s-1.57-4.33-4.7-4.72c-2.55-.33-7.29,2.21-7.67,5.82-.47,4.44,8.2,23.86,15.19,16.67,0,0,1.61-10.41-2.83-17.77Z" style="fill: #f69d85;"/>
      <path d="m93.87,104.94s1.42-2.8,3.57-2.18c4.36,1.24,6.3,15.92,2.51,14.98" style="fill: none; stroke: #c87157; strokeLinecap: round; stroke-miterlimit: 10; strokeWidth: 1.34px;"/>
      <path d="m95.37,108.32s3.19-3.28,5.42-1.01" style="fill: none; stroke: #c87157; strokeLinecap: round; stroke-miterlimit: 10; strokeWidth: 1.34px;"/>
      <path d="m192.26,103.22s1.58-4.33,4.7-4.72c2.56-.33,7.15,2.23,7.67,5.82,1.16,8.04-8.19,23.86-15.19,16.67,0,0-1.62-10.41,2.83-17.77Z" style="fill: #f69d85;"/>
      <path d="m200.79,104.94s-1.43-2.8-3.58-2.18c-4.36,1.24-4.43,15.96-.62,15.03" style="fill: none; stroke: #c87157; strokeLinecap: round; stroke-miterlimit: 10; strokeWidth: 1.34px;"/>
      <path d="m199.28,108.32s-3.17-3.28-5.42-1.01" style="fill: none; stroke: #c87157; strokeLinecap: round; stroke-miterlimit: 10; strokeWidth: 1.34px;"/>
      <path d="m193.98,98.12c0-31.32-20.66-56.73-46.14-56.73s-46.13,25.41-46.13,56.73c0,2.28.13,4.52.35,6.72h-.03s0,36.77,34.83,61.04c5.46,3.81,16.48,3.81,21.94,0,34.83-24.27,34.83-61.03,34.83-61.03h-.03c.22-2.22.37-4.45.37-6.73Z" style="fill: #f69d85;"/>
      <g>
        <path d="m137.81,90.85s-12.21-4.99-17.47,3.33c0,0,9.55-1.25,15.31,0,4.32.94,4.78-1.46,2.16-3.33Z" style="fill: #3e326e;"/>
        <path d="m161.01,90.85s12.2-4.99,17.46,3.33c0,0-9.54-1.25-15.3,0-4.32.94-4.79-1.46-2.16-3.33Z" style="fill: #3e326e;"/>
      </g>
      <path d="m157.46,102.67s-2.63,5.58.94,17.52c.75,2.49,1.43,4.91-.14,6.55-.54.56-2.61,2.7-5.34,3.48" style="fill: none; stroke: #c87157; strokeLinecap: round; stroke-miterlimit: 10; strokeWidth: 1.76px;"/>
      <path d="m161.18,140.41s-9.36,4.59-21.75,0" style="fill: none; stroke: #c87157; strokeLinecap: round; stroke-miterlimit: 10; strokeWidth: 1.76px;"/>
      <path d="m102.07,101.45s5.02-.89,4.91-8.2c-.1-7.31,4.25-28.27,8.88-31.48,0,0,18.42,13.47,35.36,7.99,24.69-7.99,28.61-1.68,30.64-1.22,0,0,2.46,10.48,4.14,13.48,1.68,3,2.02,11.7,2.7,14.44.68,2.75,2.29,6.37,4.92,4.99,0,0,21.58-48.01-2.04-53.96,0,0-19.46-36.61-62.31-22.43,0,0-9.47,2.9-16.75,12.25-3.06,3.92-12.2-1.37-13.99,8.24-1.21,6.41-5.81,45.2,3.54,55.91Z" style="fill: #3e326e;"/>
      <path d="m111.1,44.13s20.2,8.55,30.01,6.41" style="fill: none; stroke: #1e1748; strokeLinecap: round; stroke-miterlimit: 10; strokeWidth: 1.76px;"/>
      <path d="m111.1,49.63s10.09,8.85,20.2,10.37" style="fill: none; stroke: #1e1748; strokeLinecap: round; stroke-miterlimit: 10; strokeWidth: 1.76px;"/>
      <path d="m185.71,50.88s-1.96-3.69-4.77-6.75" style="fill: none; stroke: #1e1748; strokeLinecap: round; stroke-miterlimit: 10; strokeWidth: 1.76px;"/>
      <line x1="185.71" y1="54.81" x2="196.58" y2="56.03" style="fill: none; stroke: #1e1748; strokeLinecap: round; stroke-miterlimit: 10; strokeWidth: 1.76px;"/>
      <path d="m133.55,105.37c0,2.06-1.64,3.73-3.66,3.73s-3.66-1.67-3.66-3.73,1.63-3.73,3.66-3.73,3.66,1.66,3.66,3.73Z" style="fill: #302b44;"/>
      <path d="m171.6,105.37c0,2.06-1.64,3.73-3.65,3.73s-3.66-1.67-3.66-3.73,1.64-3.73,3.66-3.73,3.65,1.66,3.65,3.73Z" style="fill: #302b44;"/>
      <path d="m116.67,176.1s-19.03,12.24-13.16,18.62l28.42,19.6,16.73-19.11-31.99-19.1Z" style="fill: #d8d8ec;"/>
      <path d="m179.5,176.1s19.02,12.24,13.17,18.62l-28.42,19.6-16.74-19.11,31.99-19.1Z" style="fill: #d8d8ec;"/>
      <g>
        <path d="m63.59,300c1.35-5.25,2.71-9.99,4.09-14.32,5.17-16.26,4.31-65.11,1.48-71.25,0,0-37.83,7.86-44.75,36.65-3.5,14.55-4.89,33.92-5.13,48.92h44.31Z" style="fill: #f4866f;"/>
        <path d="m71.13,300l2.44-29.09v-61.62c-15.98,5.59-36.17,18.53-36.17,18.53-11.58,6.42-17.96,35.16-21.23,72.19h54.96Z" style="fill: #3e326e;"/>
      </g>
      <g>
        <path d="m235.63,300h44.55c-.29-14.85-1.69-33.69-5.12-47.92-6.93-28.79-44.76-36.64-44.76-36.64-2.82,6.14-3.69,54.99,1.5,71.25,1.29,4.05,2.56,8.45,3.83,13.31Z" style="fill: #f4866f;"/>
        <path d="m283.83,300c-3.75-36.43-10.48-64.75-22.08-71.18,0,0-20.2-12.94-36.17-18.53v61.63l2.86,28.08h55.4Z" style="fill: #3e326e;"/>
      </g>
      <path d="m98.33,204.18c-7.64,22.66-24.17,42.4-3.08,63.35" style="fill: none; stroke: #1e1748; strokeLinecap: round; stroke-miterlimit: 10; strokeWidth: 1.69px;"/>
      <path d="m202.46,205.69c3.32,22.07,18.07,40.64,2.89,61.66" style="fill: none; stroke: #1e1748; strokeLinecap: round; stroke-miterlimit: 10; strokeWidth: 1.69px;"/>
    </g>
  </g>
  <circle cx="150" cy="150" r="147.5" style="fill: none;"/>
</svg>