<svg width="280" height="250" viewBox="0 0 280 250" fill="none" xmlns="http://www.w3.org/2000/svg">
<g clipPath="url(#clip0_747_417)">
<path fillRule="evenodd" clipRule="evenodd" d="M111.081 181.202H94.0737C92.4216 181.202 91 179.787 91 178.128V72.0737C91 70.4152 92.4152 69 94.0737 69H111.081C112.733 69 114.155 70.4152 114.155 72.0737V177.898C114.155 179.787 112.74 181.202 111.081 181.202ZM187.98 70.0225C188.482 70.5723 188.794 71.2963 188.794 72.0737V89.7921C188.794 89.7976 188.794 89.803 188.794 89.8084V116.226C188.794 116.232 188.794 116.238 188.794 116.245V133.963C188.794 133.963 188.794 133.963 188.794 133.963C188.794 134.17 188.772 134.373 188.73 134.569C188.437 135.948 187.172 137.037 185.72 137.037H168.713C168.697 137.037 168.682 137.037 168.667 137.037H126.43C124.778 137.037 123.357 135.622 123.357 133.963V116.245C123.357 114.592 124.772 113.171 126.43 113.171H165.639V92.8658H126.43C124.778 92.8658 123.357 91.4506 123.357 89.7921V72.0737C123.357 70.4216 124.772 69 126.43 69H168.713H185.72C186.598 69 187.411 69.3994 187.98 70.0225ZM188.794 160.179V177.897C188.794 179.549 187.379 180.971 185.72 180.971H126.43C124.778 180.971 123.357 179.556 123.357 177.897V160.179C123.357 158.527 124.772 157.105 126.43 157.105H185.72C187.372 157.105 188.794 158.52 188.794 160.179Z" fill="#08AEEC"/>
</g>
<defs>
<clipPath id="clip0_747_417">
<rect width="280" height="250" fill="white"/>
</clipPath>
</defs>
</svg>
