<svg width="1200" height="800" viewBox="0 0 1200 800" fill="none" xmlns="http://www.w3.org/2000/svg">
<g clipPath="url(#clip0_473_45)">
<path d="M1200 0H0V800H1200V0Z" fill="url(#paint0_linear_473_45)"/>
<path d="M600 286.13C643.089 286.13 678.02 251.199 678.02 208.11C678.02 165.021 643.089 130.09 600 130.09C556.911 130.09 521.98 165.021 521.98 208.11C521.98 251.199 556.911 286.13 600 286.13Z" fill="#F1D1FF"/>
<path d="M0 753.66L304.39 435.45C312.47 427.01 326.02 427.22 333.82 435.92L505.4 627.22C513.52 636.27 527.76 636.08 535.63 626.81L813.35 299.68C821.23 290.4 835.49 290.22 843.61 299.3L1200.01 698.35V800H0V753.66Z" fill="#F1D1FF"/>
</g>
<defs>
<linearGradient id="paint0_linear_473_45" x1="1351" y1="902.5" x2="-158.5" y2="-109.5" gradientUnits="userSpaceOnUse">
<stop stop-color="#4D00B3"/>
<stop offset="0.92" stop-color="#D8C2EC"/>
</linearGradient>
<clipPath id="clip0_473_45">
<rect width="1200" height="800" fill="white"/>
</clipPath>
</defs>
</svg>
