<svg width="280" height="250" viewBox="0 0 280 250" fill="none" xmlns="http://www.w3.org/2000/svg">
<g clipPath="url(#clip0_747_436)">
<path d="M149.628 157.325H97.3232C95.1842 157.325 93.0517 159.443 93.0517 161.555L93.1616 177.655C93.1616 179.773 95.3005 181.885 97.433 181.885L150.345 181.994C152.484 181.994 153.906 179.876 153.906 177.764V161.555C153.906 159.437 151.767 157.325 149.634 157.325H149.628ZM187.832 116.793C187.832 114.675 185.693 112.563 183.56 112.563H167.198C167.03 112.563 166.862 112.583 166.694 112.608H118.009L117.95 92.5981L184.239 92.6813C186.378 92.6813 187.8 90.5632 187.8 88.4515V72.2298C187.8 70.1117 185.661 68 183.528 68H97.3232C95.1842 68 93.0517 70.1181 93.0517 72.2298L93.0775 75.7365C93.0258 75.9669 93 76.1973 93 76.434L93.1228 116.217C93.084 116.422 93.0582 116.627 93.0582 116.832L93.168 132.932C93.168 135.05 95.307 137.161 97.4395 137.161L162.985 137.245L163.095 177.77C163.095 179.888 165.234 182 167.366 182H183.729C185.867 182 188 179.882 188 177.77L187.838 116.787L187.832 116.793Z" fill="#FC6A2A"/>
</g>
<defs>
<clipPath id="clip0_747_436">
<rect width="280" height="250" fill="white"/>
</clipPath>
</defs>
</svg>
