<svg width="280" height="250" viewBox="0 0 280 250" fill="none" xmlns="http://www.w3.org/2000/svg">
<g clipPath="url(#clip0_747_428)">
<path fillRule="evenodd" clipRule="evenodd" d="M202.595 67H201.495V68.1005H202.595V67ZM194.071 67.964H195.439V69.3314H194.071V67.964ZM179.231 73.8244H184.551V79.1444H179.231V73.8244ZM77 97.8908V178.947V178.953C77 181.037 78.693 182.73 80.7767 182.73H144.102C146.185 182.73 147.878 181.037 147.878 178.953V154.014C147.878 151.93 149.571 150.237 151.655 150.237H191.362C193.446 150.237 195.139 148.544 195.139 146.46V106.753C195.139 104.669 193.446 102.976 191.362 102.976H171.509V83.1226C171.509 81.0389 169.816 79.3459 167.732 79.3459H128.025C125.941 79.3459 124.248 81.0389 124.248 83.1226V155.316C124.248 157.4 122.555 159.093 120.471 159.093H104.394C102.31 159.093 100.617 157.4 100.617 155.316V97.8908C100.617 95.8071 98.9244 94.1141 96.8407 94.1141H80.7637C78.68 94.1141 76.9935 95.8071 77 97.8908ZM171.509 102.976V122.83C171.509 124.914 169.816 126.607 167.732 126.607H151.655C149.571 126.607 147.878 124.914 147.878 122.83V106.753C147.878 104.669 149.571 102.976 151.655 102.976H171.509ZM191.922 84.1125H188.263V87.772H191.922V84.1125ZM190.099 73.8244H192.834V76.5593H190.099V73.8244ZM202.595 85.0371H199.86V87.772H202.595V85.0371ZM197.692 74.508H199.059V75.8754H197.692V74.508ZM182.754 89.1653H179.739V92.1802H182.754V89.1653ZM193.668 92.5121H195.836V94.6804H193.668V92.5121Z" fill="#08C972"/>
</g>
<defs>
<clipPath id="clip0_747_428">
<rect width="280" height="250" fill="white"/>
</clipPath>
</defs>
</svg>
