<svg width="280" height="250" viewBox="0 0 280 250" fill="none" xmlns="http://www.w3.org/2000/svg">
<g clipPath="url(#clip0_747_388)">
<path d="M83.23 116.56L130.26 69H83L83.23 116.56Z" fill="#2667FF"/>
<path d="M178.86 100.52L160.26 119.12C163.01 122.2 166.27 127.14 166.27 131.56C166.27 136.87 164.15 141.29 160.74 144.82C157.44 148.24 153.13 149.91 148.04 149.91H107.64L189.88 69.0098H151.9L83.1802 137.43V181.61L109.39 181.42H148C161.59 181.42 172.88 177.22 182.27 168.83C191.44 160.44 196.08 146.74 196.08 133.71C196.08 119.94 189.14 108.35 178.85 100.52H178.86Z" fill="#2667FF"/>
</g>
<defs>
<clipPath id="clip0_747_388">
<rect width="280" height="250" fill="white"/>
</clipPath>
</defs>
</svg>
